<svg width="81" height="80" viewBox="0 0 81 80" fill="none" xmlns="http://www.w3.org/2000/svg">
<path d="M73.4192 31.4384H7.61888C4.50143 31.4384 3.16539 28.0002 5.61481 26.3656L38.5149 4.55257C39.1224 4.19078 39.8143 4 40.519 4C41.2238 4 41.9157 4.19078 42.5231 4.55257L75.4232 26.3656C77.8727 28.0002 76.5366 31.4384 73.4192 31.4384Z" stroke="#5D55FF" stroke-width="4" stroke-linecap="round" stroke-linejoin="round"/>
<path d="M73.9193 62.4388H7.11693C5.57968 62.4388 4.3335 63.7006 4.3335 65.2571V73.7117C4.3335 75.2682 5.57968 76.53 7.11693 76.53H73.9193C75.4565 76.53 76.7027 75.2682 76.7027 73.7117V65.2571C76.7027 63.7006 75.4565 62.4388 73.9193 62.4388Z" stroke="#5D55FF" stroke-width="4" stroke-linecap="round" stroke-linejoin="round"/>
<path d="M12.6836 31.4385V62.4389M26.6007 31.4385V62.4389M40.5179 31.4385V62.4389M54.435 31.4385V62.4389M68.3522 31.4385V62.4389" stroke="#5D55FF" stroke-width="4" stroke-linecap="round" stroke-linejoin="round"/>
</svg>
