<svg width="343" height="190" viewBox="0 0 343 190" fill="none" xmlns="http://www.w3.org/2000/svg">
<g filter="url(#filter0_b_355_137)">
<g clip-path="url(#clip0_355_137)">
<rect x="0.333496" width="342" height="190" rx="15" fill="white" fill-opacity="0.01"/>
<rect x="0.333496" width="342" height="190" rx="15" fill="#0E0A5F" fill-opacity="0.6"/>
<path d="M31.2525 91.192L29.1085 92.376V92.024L31.2525 93.208L30.6285 94.296L28.5645 93.096L28.7725 92.984L28.7885 95.272H27.5725L27.5885 92.984L27.7965 93.096L25.7485 94.296L25.1085 93.208L27.2685 92.024V92.376L25.1085 91.192L25.7485 90.088L27.7965 91.304L27.5885 91.432L27.5725 89.128H28.7885L28.7725 91.432L28.5645 91.304L30.6285 90.088L31.2525 91.192ZM39.8213 91.192L37.6773 92.376V92.024L39.8213 93.208L39.1973 94.296L37.1333 93.096L37.3413 92.984L37.3573 95.272H36.1413L36.1573 92.984L36.3653 93.096L34.3173 94.296L33.6773 93.208L35.8373 92.024V92.376L33.6773 91.192L34.3173 90.088L36.3653 91.304L36.1573 91.432L36.1413 89.128H37.3573L37.3413 91.432L37.1333 91.304L39.1973 90.088L39.8213 91.192ZM48.39 91.192L46.246 92.376V92.024L48.39 93.208L47.766 94.296L45.702 93.096L45.91 92.984L45.926 95.272H44.71L44.726 92.984L44.934 93.096L42.886 94.296L42.246 93.208L44.406 92.024V92.376L42.246 91.192L42.886 90.088L44.934 91.304L44.726 91.432L44.71 89.128H45.926L45.91 91.432L45.702 91.304L47.766 90.088L48.39 91.192ZM56.9588 91.192L54.8148 92.376V92.024L56.9588 93.208L56.3348 94.296L54.2708 93.096L54.4788 92.984L54.4948 95.272H53.2788L53.2948 92.984L53.5028 93.096L51.4548 94.296L50.8148 93.208L52.9748 92.024V92.376L50.8148 91.192L51.4548 90.088L53.5028 91.304L53.2948 91.432L53.2788 89.128H54.4948L54.4788 91.432L54.2708 91.304L56.3348 90.088L56.9588 91.192ZM77.2588 91.192L75.1148 92.376V92.024L77.2588 93.208L76.6348 94.296L74.5708 93.096L74.7788 92.984L74.7948 95.272H73.5788L73.5948 92.984L73.8028 93.096L71.7548 94.296L71.1148 93.208L73.2748 92.024V92.376L71.1148 91.192L71.7548 90.088L73.8028 91.304L73.5948 91.432L73.5788 89.128H74.7948L74.7788 91.432L74.5708 91.304L76.6348 90.088L77.2588 91.192ZM85.8275 91.192L83.6835 92.376V92.024L85.8275 93.208L85.2035 94.296L83.1395 93.096L83.3475 92.984L83.3635 95.272H82.1475L82.1635 92.984L82.3715 93.096L80.3235 94.296L79.6835 93.208L81.8435 92.024V92.376L79.6835 91.192L80.3235 90.088L82.3715 91.304L82.1635 91.432L82.1475 89.128H83.3635L83.3475 91.432L83.1395 91.304L85.2035 90.088L85.8275 91.192ZM94.3963 91.192L92.2523 92.376V92.024L94.3963 93.208L93.7723 94.296L91.7083 93.096L91.9163 92.984L91.9323 95.272H90.7163L90.7323 92.984L90.9403 93.096L88.8923 94.296L88.2523 93.208L90.4123 92.024V92.376L88.2523 91.192L88.8923 90.088L90.9403 91.304L90.7323 91.432L90.7163 89.128H91.9323L91.9163 91.432L91.7083 91.304L93.7723 90.088L94.3963 91.192ZM102.965 91.192L100.821 92.376V92.024L102.965 93.208L102.341 94.296L100.277 93.096L100.485 92.984L100.501 95.272H99.285L99.301 92.984L99.509 93.096L97.461 94.296L96.821 93.208L98.981 92.024V92.376L96.821 91.192L97.461 90.088L99.509 91.304L99.301 91.432L99.285 89.128H100.501L100.485 91.432L100.277 91.304L102.341 90.088L102.965 91.192ZM123.265 91.192L121.121 92.376V92.024L123.265 93.208L122.641 94.296L120.577 93.096L120.785 92.984L120.801 95.272H119.585L119.601 92.984L119.809 93.096L117.761 94.296L117.121 93.208L119.281 92.024V92.376L117.121 91.192L117.761 90.088L119.809 91.304L119.601 91.432L119.585 89.128H120.801L120.785 91.432L120.577 91.304L122.641 90.088L123.265 91.192ZM131.834 91.192L129.69 92.376V92.024L131.834 93.208L131.21 94.296L129.146 93.096L129.354 92.984L129.37 95.272H128.154L128.17 92.984L128.378 93.096L126.33 94.296L125.69 93.208L127.85 92.024V92.376L125.69 91.192L126.33 90.088L128.378 91.304L128.17 91.432L128.154 89.128H129.37L129.354 91.432L129.146 91.304L131.21 90.088L131.834 91.192ZM140.403 91.192L138.259 92.376V92.024L140.403 93.208L139.779 94.296L137.715 93.096L137.923 92.984L137.939 95.272H136.723L136.739 92.984L136.947 93.096L134.899 94.296L134.259 93.208L136.419 92.024V92.376L134.259 91.192L134.899 90.088L136.947 91.304L136.739 91.432L136.723 89.128H137.939L137.923 91.432L137.715 91.304L139.779 90.088L140.403 91.192ZM148.971 91.192L146.827 92.376V92.024L148.971 93.208L148.347 94.296L146.283 93.096L146.491 92.984L146.507 95.272H145.291L145.307 92.984L145.515 93.096L143.467 94.296L142.827 93.208L144.987 92.024V92.376L142.827 91.192L143.467 90.088L145.515 91.304L145.307 91.432L145.291 89.128H146.507L146.491 91.432L146.283 91.304L148.347 90.088L148.971 91.192ZM169.271 91.192L167.127 92.376V92.024L169.271 93.208L168.647 94.296L166.583 93.096L166.791 92.984L166.807 95.272H165.591L165.607 92.984L165.815 93.096L163.767 94.296L163.127 93.208L165.287 92.024V92.376L163.127 91.192L163.767 90.088L165.815 91.304L165.607 91.432L165.591 89.128H166.807L166.791 91.432L166.583 91.304L168.647 90.088L169.271 91.192ZM177.84 91.192L175.696 92.376V92.024L177.84 93.208L177.216 94.296L175.152 93.096L175.36 92.984L175.376 95.272H174.16L174.176 92.984L174.384 93.096L172.336 94.296L171.696 93.208L173.856 92.024V92.376L171.696 91.192L172.336 90.088L174.384 91.304L174.176 91.432L174.16 89.128H175.376L175.36 91.432L175.152 91.304L177.216 90.088L177.84 91.192ZM186.409 91.192L184.265 92.376V92.024L186.409 93.208L185.785 94.296L183.721 93.096L183.929 92.984L183.945 95.272H182.729L182.745 92.984L182.953 93.096L180.905 94.296L180.265 93.208L182.425 92.024V92.376L180.265 91.192L180.905 90.088L182.953 91.304L182.745 91.432L182.729 89.128H183.945L183.929 91.432L183.721 91.304L185.785 90.088L186.409 91.192ZM194.978 91.192L192.834 92.376V92.024L194.978 93.208L194.354 94.296L192.29 93.096L192.498 92.984L192.514 95.272H191.298L191.314 92.984L191.522 93.096L189.474 94.296L188.834 93.208L190.994 92.024V92.376L188.834 91.192L189.474 90.088L191.522 91.304L191.314 91.432L191.298 89.128H192.514L192.498 91.432L192.29 91.304L194.354 90.088L194.978 91.192Z" fill="white"/>
<path d="M29.8135 150.92V135.88H31.1255V150.92H29.8135ZM30.3095 149.16C29.4348 149.16 28.5975 149.037 27.7975 148.792C26.9975 148.536 26.3628 148.211 25.8935 147.816L26.6135 146.2C27.0615 146.552 27.6162 146.845 28.2775 147.08C28.9388 147.315 29.6162 147.432 30.3095 147.432C30.8962 147.432 31.3708 147.368 31.7335 147.24C32.0962 147.112 32.3628 146.941 32.5335 146.728C32.7042 146.504 32.7895 146.253 32.7895 145.976C32.7895 145.635 32.6668 145.363 32.4215 145.16C32.1762 144.947 31.8562 144.781 31.4615 144.664C31.0775 144.536 30.6455 144.419 30.1655 144.312C29.6962 144.205 29.2215 144.083 28.7415 143.944C28.2722 143.795 27.8402 143.608 27.4455 143.384C27.0615 143.149 26.7468 142.84 26.5015 142.456C26.2562 142.072 26.1335 141.581 26.1335 140.984C26.1335 140.376 26.2935 139.821 26.6135 139.32C26.9442 138.808 27.4402 138.403 28.1015 138.104C28.7735 137.795 29.6215 137.64 30.6455 137.64C31.3175 137.64 31.9842 137.725 32.6455 137.896C33.3068 138.067 33.8828 138.312 34.3735 138.632L33.7175 140.248C33.2162 139.949 32.6988 139.731 32.1655 139.592C31.6322 139.443 31.1202 139.368 30.6295 139.368C30.0535 139.368 29.5842 139.437 29.2215 139.576C28.8695 139.715 28.6082 139.896 28.4375 140.12C28.2775 140.344 28.1975 140.6 28.1975 140.888C28.1975 141.229 28.3148 141.507 28.5495 141.72C28.7948 141.923 29.1095 142.083 29.4935 142.2C29.8882 142.317 30.3255 142.435 30.8055 142.552C31.2855 142.659 31.7602 142.781 32.2295 142.92C32.7095 143.059 33.1415 143.24 33.5255 143.464C33.9202 143.688 34.2348 143.992 34.4695 144.376C34.7148 144.76 34.8375 145.245 34.8375 145.832C34.8375 146.429 34.6722 146.984 34.3415 147.496C34.0215 147.997 33.5255 148.403 32.8535 148.712C32.1815 149.011 31.3335 149.16 30.3095 149.16ZM37.7357 149V138.6L38.6477 139.544H35.3677V137.8H39.8157V149H37.7357ZM46.7095 149.16C45.8242 149.16 45.0242 148.936 44.3095 148.488C43.6055 148.04 43.0508 147.389 42.6455 146.536C42.2402 145.672 42.0375 144.627 42.0375 143.4C42.0375 142.173 42.2402 141.133 42.6455 140.28C43.0508 139.416 43.6055 138.76 44.3095 138.312C45.0242 137.864 45.8242 137.64 46.7095 137.64C47.6055 137.64 48.4055 137.864 49.1095 138.312C49.8135 138.76 50.3682 139.416 50.7735 140.28C51.1895 141.133 51.3975 142.173 51.3975 143.4C51.3975 144.627 51.1895 145.672 50.7735 146.536C50.3682 147.389 49.8135 148.04 49.1095 148.488C48.4055 148.936 47.6055 149.16 46.7095 149.16ZM46.7095 147.352C47.2322 147.352 47.6855 147.213 48.0695 146.936C48.4535 146.648 48.7522 146.211 48.9655 145.624C49.1895 145.037 49.3015 144.296 49.3015 143.4C49.3015 142.493 49.1895 141.752 48.9655 141.176C48.7522 140.589 48.4535 140.157 48.0695 139.88C47.6855 139.592 47.2322 139.448 46.7095 139.448C46.2082 139.448 45.7602 139.592 45.3655 139.88C44.9815 140.157 44.6775 140.589 44.4535 141.176C44.2402 141.752 44.1335 142.493 44.1335 143.4C44.1335 144.296 44.2402 145.037 44.4535 145.624C44.6775 146.211 44.9815 146.648 45.3655 146.936C45.7602 147.213 46.2082 147.352 46.7095 147.352ZM57.4751 149.16C56.5898 149.16 55.7898 148.936 55.0751 148.488C54.3711 148.04 53.8165 147.389 53.4111 146.536C53.0058 145.672 52.8031 144.627 52.8031 143.4C52.8031 142.173 53.0058 141.133 53.4111 140.28C53.8165 139.416 54.3711 138.76 55.0751 138.312C55.7898 137.864 56.5898 137.64 57.4751 137.64C58.3711 137.64 59.1711 137.864 59.8751 138.312C60.5791 138.76 61.1338 139.416 61.5391 140.28C61.9551 141.133 62.1631 142.173 62.1631 143.4C62.1631 144.627 61.9551 145.672 61.5391 146.536C61.1338 147.389 60.5791 148.04 59.8751 148.488C59.1711 148.936 58.3711 149.16 57.4751 149.16ZM57.4751 147.352C57.9978 147.352 58.4511 147.213 58.8351 146.936C59.2191 146.648 59.5178 146.211 59.7311 145.624C59.9551 145.037 60.0671 144.296 60.0671 143.4C60.0671 142.493 59.9551 141.752 59.7311 141.176C59.5178 140.589 59.2191 140.157 58.8351 139.88C58.4511 139.592 57.9978 139.448 57.4751 139.448C56.9738 139.448 56.5258 139.592 56.1311 139.88C55.7471 140.157 55.4431 140.589 55.2191 141.176C55.0058 141.752 54.8991 142.493 54.8991 143.4C54.8991 144.296 55.0058 145.037 55.2191 145.624C55.4431 146.211 55.7471 146.648 56.1311 146.936C56.5258 147.213 56.9738 147.352 57.4751 147.352ZM68.2407 149.16C67.3554 149.16 66.5554 148.936 65.8407 148.488C65.1367 148.04 64.5821 147.389 64.1767 146.536C63.7714 145.672 63.5687 144.627 63.5687 143.4C63.5687 142.173 63.7714 141.133 64.1767 140.28C64.5821 139.416 65.1367 138.76 65.8407 138.312C66.5554 137.864 67.3554 137.64 68.2407 137.64C69.1367 137.64 69.9367 137.864 70.6407 138.312C71.3447 138.76 71.8994 139.416 72.3047 140.28C72.7207 141.133 72.9287 142.173 72.9287 143.4C72.9287 144.627 72.7207 145.672 72.3047 146.536C71.8994 147.389 71.3447 148.04 70.6407 148.488C69.9367 148.936 69.1367 149.16 68.2407 149.16ZM68.2407 147.352C68.7634 147.352 69.2167 147.213 69.6007 146.936C69.9847 146.648 70.2834 146.211 70.4967 145.624C70.7207 145.037 70.8327 144.296 70.8327 143.4C70.8327 142.493 70.7207 141.752 70.4967 141.176C70.2834 140.589 69.9847 140.157 69.6007 139.88C69.2167 139.592 68.7634 139.448 68.2407 139.448C67.7394 139.448 67.2914 139.592 66.8967 139.88C66.5127 140.157 66.2087 140.589 65.9847 141.176C65.7714 141.752 65.6647 142.493 65.6647 143.4C65.6647 144.296 65.7714 145.037 65.9847 145.624C66.2087 146.211 66.5127 146.648 66.8967 146.936C67.2914 147.213 67.7394 147.352 68.2407 147.352ZM83.4282 149.16C82.5429 149.16 81.7429 148.936 81.0282 148.488C80.3242 148.04 79.7696 147.389 79.3642 146.536C78.9589 145.672 78.7562 144.627 78.7562 143.4C78.7562 142.173 78.9589 141.133 79.3642 140.28C79.7696 139.416 80.3242 138.76 81.0282 138.312C81.7429 137.864 82.5429 137.64 83.4282 137.64C84.3242 137.64 85.1242 137.864 85.8282 138.312C86.5322 138.76 87.0869 139.416 87.4922 140.28C87.9082 141.133 88.1162 142.173 88.1162 143.4C88.1162 144.627 87.9082 145.672 87.4922 146.536C87.0869 147.389 86.5322 148.04 85.8282 148.488C85.1242 148.936 84.3242 149.16 83.4282 149.16ZM83.4282 147.352C83.9509 147.352 84.4042 147.213 84.7882 146.936C85.1722 146.648 85.4709 146.211 85.6842 145.624C85.9082 145.037 86.0202 144.296 86.0202 143.4C86.0202 142.493 85.9082 141.752 85.6842 141.176C85.4709 140.589 85.1722 140.157 84.7882 139.88C84.4042 139.592 83.9509 139.448 83.4282 139.448C82.9269 139.448 82.4789 139.592 82.0842 139.88C81.7002 140.157 81.3962 140.589 81.1722 141.176C80.9589 141.752 80.8522 142.493 80.8522 143.4C80.8522 144.296 80.9589 145.037 81.1722 145.624C81.3962 146.211 81.7002 146.648 82.0842 146.936C82.4789 147.213 82.9269 147.352 83.4282 147.352ZM94.1939 149.16C93.3085 149.16 92.5085 148.936 91.7939 148.488C91.0899 148.04 90.5352 147.389 90.1299 146.536C89.7245 145.672 89.5219 144.627 89.5219 143.4C89.5219 142.173 89.7245 141.133 90.1299 140.28C90.5352 139.416 91.0899 138.76 91.7939 138.312C92.5085 137.864 93.3085 137.64 94.1939 137.64C95.0899 137.64 95.8899 137.864 96.5939 138.312C97.2979 138.76 97.8525 139.416 98.2579 140.28C98.6739 141.133 98.8819 142.173 98.8819 143.4C98.8819 144.627 98.6739 145.672 98.2579 146.536C97.8525 147.389 97.2979 148.04 96.5939 148.488C95.8899 148.936 95.0899 149.16 94.1939 149.16ZM94.1939 147.352C94.7165 147.352 95.1699 147.213 95.5539 146.936C95.9379 146.648 96.2365 146.211 96.4499 145.624C96.6739 145.037 96.7859 144.296 96.7859 143.4C96.7859 142.493 96.6739 141.752 96.4499 141.176C96.2365 140.589 95.9379 140.157 95.5539 139.88C95.1699 139.592 94.7165 139.448 94.1939 139.448C93.6925 139.448 93.2445 139.592 92.8499 139.88C92.4659 140.157 92.1619 140.589 91.9379 141.176C91.7245 141.752 91.6179 142.493 91.6179 143.4C91.6179 144.296 91.7245 145.037 91.9379 145.624C92.1619 146.211 92.4659 146.648 92.8499 146.936C93.2445 147.213 93.6925 147.352 94.1939 147.352ZM104.959 149.16C104.074 149.16 103.274 148.936 102.559 148.488C101.855 148.04 101.301 147.389 100.895 146.536C100.49 145.672 100.287 144.627 100.287 143.4C100.287 142.173 100.49 141.133 100.895 140.28C101.301 139.416 101.855 138.76 102.559 138.312C103.274 137.864 104.074 137.64 104.959 137.64C105.855 137.64 106.655 137.864 107.359 138.312C108.063 138.76 108.618 139.416 109.023 140.28C109.439 141.133 109.647 142.173 109.647 143.4C109.647 144.627 109.439 145.672 109.023 146.536C108.618 147.389 108.063 148.04 107.359 148.488C106.655 148.936 105.855 149.16 104.959 149.16ZM104.959 147.352C105.482 147.352 105.935 147.213 106.319 146.936C106.703 146.648 107.002 146.211 107.215 145.624C107.439 145.037 107.551 144.296 107.551 143.4C107.551 142.493 107.439 141.752 107.215 141.176C107.002 140.589 106.703 140.157 106.319 139.88C105.935 139.592 105.482 139.448 104.959 139.448C104.458 139.448 104.01 139.592 103.615 139.88C103.231 140.157 102.927 140.589 102.703 141.176C102.49 141.752 102.383 142.493 102.383 143.4C102.383 144.296 102.49 145.037 102.703 145.624C102.927 146.211 103.231 146.648 103.615 146.936C104.01 147.213 104.458 147.352 104.959 147.352ZM116.275 149V137.8H118.355V147.24H124.211V149H116.275ZM125.853 149V137.8H127.933V149H125.853ZM130.962 149V137.8H132.674L137.57 145.976H136.674L141.49 137.8H143.202L143.218 149H141.25L141.234 140.888H141.65L137.554 147.72H136.626L132.466 140.888H132.946V149H130.962ZM146.244 149V137.8H148.324V149H146.244ZM153.625 149V139.56H149.913V137.8H159.417V139.56H155.705V149H153.625Z" fill="white"/>
<path d="M226.686 147V139.8H228.398V147H226.686ZM223.854 144.2V142.6H231.23V144.2H223.854Z" fill="white"/>
<path opacity="0.9" d="M231.166 119.6L227.446 128H226.57L222.85 119.6H223.81L227.026 126.896L230.266 119.6H231.166ZM237.396 125.756H232.716L231.708 128H230.784L234.624 119.6H235.5L239.34 128H238.404L237.396 125.756ZM237.072 125.036L235.056 120.524L233.04 125.036H237.072ZM240.729 119.6H241.617V127.232H246.321V128H240.729V119.6ZM247.796 119.6H248.684V128H247.796V119.6ZM251.417 119.6H254.837C255.725 119.6 256.509 119.78 257.189 120.14C257.869 120.492 258.397 120.988 258.773 121.628C259.149 122.26 259.337 122.984 259.337 123.8C259.337 124.616 259.149 125.344 258.773 125.984C258.397 126.616 257.869 127.112 257.189 127.472C256.509 127.824 255.725 128 254.837 128H251.417V119.6ZM254.789 127.232C255.525 127.232 256.169 127.088 256.721 126.8C257.273 126.504 257.701 126.1 258.005 125.588C258.309 125.068 258.461 124.472 258.461 123.8C258.461 123.128 258.309 122.536 258.005 122.024C257.701 121.504 257.273 121.1 256.721 120.812C256.169 120.516 255.525 120.368 254.789 120.368H252.305V127.232H254.789ZM266.104 120.368H263.152V119.6H269.944V120.368H266.992V128H266.104V120.368ZM271.362 119.6H272.25V128H271.362V119.6ZM274.983 119.6H275.871V127.232H280.575V128H274.983V119.6ZM282.05 119.6H282.938V127.232H287.642V128H282.05V119.6Z" fill="white"/>
<g clip-path="url(#clip1_355_137)">
<circle cx="40.6578" cy="49.4588" r="15.3243" fill="#EB001B"/>
<circle cx="59.047" cy="49.4588" r="15.3243" fill="#F79E1B"/>
<path fill-rule="evenodd" clip-rule="evenodd" d="M49.8523 61.7184C54.0826 59.2713 56.9287 54.6975 56.9287 49.4589C56.9287 44.2204 54.0826 39.6466 49.8523 37.1995C45.622 39.6466 42.7759 44.2204 42.7759 49.4589C42.7759 54.6975 45.622 59.2713 49.8523 61.7184Z" fill="#FF5F00"/>
</g>
<g clip-path="url(#clip2_355_137)">
<path d="M252.333 140C250.352 140 249.038 141.485 248.333 142.588C247.629 141.485 246.315 140 244.333 140C243.273 140 242.255 140.421 241.505 141.172C240.755 141.922 240.333 142.939 240.333 144C240.333 145.061 240.755 146.078 241.505 146.828C242.255 147.579 243.273 148 244.333 148C246.315 148 247.629 146.515 248.333 145.412C249.038 146.515 250.352 148 252.333 148C253.394 148 254.412 147.579 255.162 146.828C255.912 146.078 256.333 145.061 256.333 144C256.333 142.939 255.912 141.922 255.162 141.172C254.412 140.421 253.394 140 252.333 140ZM244.333 146.667C243.626 146.667 242.948 146.386 242.448 145.886C241.948 145.386 241.667 144.707 241.667 144C241.667 143.293 241.948 142.614 242.448 142.114C242.948 141.614 243.626 141.333 244.333 141.333C246.129 141.333 247.255 143.297 247.6 144C247.257 144.707 246.139 146.667 244.333 146.667ZM252.333 146.667C250.538 146.667 249.412 144.703 249.067 144C249.41 143.295 250.529 141.333 252.333 141.333C253.041 141.333 253.719 141.614 254.219 142.114C254.719 142.614 255 143.293 255 144C255 144.707 254.719 145.386 254.219 145.886C253.719 146.386 253.041 146.667 252.333 146.667Z" fill="white"/>
</g>
</g>
</g>
<defs>
<filter id="filter0_b_355_137" x="-10.6665" y="-11" width="364" height="212" filterUnits="userSpaceOnUse" color-interpolation-filters="sRGB">
<feFlood flood-opacity="0" result="BackgroundImageFix"/>
<feGaussianBlur in="BackgroundImageFix" stdDeviation="5.5"/>
<feComposite in2="SourceAlpha" operator="in" result="effect1_backgroundBlur_355_137"/>
<feBlend mode="normal" in="SourceGraphic" in2="effect1_backgroundBlur_355_137" result="shape"/>
</filter>
<clipPath id="clip0_355_137">
<rect x="0.333496" width="342" height="190" rx="15" fill="white"/>
</clipPath>
<clipPath id="clip1_355_137">
<rect width="49.0378" height="49.0378" fill="white" transform="translate(25.3335 25)"/>
</clipPath>
<clipPath id="clip2_355_137">
<rect width="16" height="16" fill="white" transform="translate(240.333 136)"/>
</clipPath>
</defs>
</svg>
